<svg width="600" height="400" viewBox="0 0 600 400" fill="none" xmlns="http://www.w3.org/2000/svg">
    <!-- Fond de l'écran -->
    <rect width="600" height="400" rx="8" fill="#F8F9FA"/>
    
    <!-- Barre supérieure -->
    <rect x="16" y="16" width="568" height="40" rx="4" fill="#E9ECEF"/>
    <rect x="36" y="28" width="16" height="16" rx="8" fill="#FF5F56"/>
    <rect x="60" y="28" width="16" height="16" rx="8" fill="#FFBD2E"/>
    <rect x="84" y="28" width="16" height="16" rx="8" fill="#27C93F"/>
    
    <!-- Barre d'URL -->
    <rect x="120" y="28" width="360" height="16" rx="8" fill="#DEE2E6"/>
    
    <!-- Zone de contenu -->
    <rect x="32" y="72" width="536" height="40" rx="4" fill="#E9ECEF"/>
    <rect x="32" y="128" width="300" height="24" rx="4" fill="#E9ECEF"/>
    <rect x="32" y="168" width="400" height="16" rx="4" fill="#E9ECEF"/>
    <rect x="32" y="200" width="350" height="16" rx="4" fill="E9ECEF"/>
    
    <!-- Boutons CTA -->
    <rect x="32" y="240" width="140" height="48" rx="24" fill="#4361EE"/>
    <rect x="192" y="240" width="180" height="48" rx="24" fill="#E9ECEF"/>
    
    <!-- Image de démonstration -->
    <rect x="400" y="100" width="168" height="200" rx="8" fill="#E9ECEF"/>
    <rect x="420" y="120" width="128" height="16" rx="4" fill="#DEE2E6"/>
    <rect x="420" y="150" width="100" height="100" rx="4" fill="#DEE2E6"/>
    <rect x="420" y="260" width="128" height="12" rx="4" fill="#DEE2E6"/>
    <rect x="420" y="280" width="80" height="12" rx="4" fill="#DEE2E6"/>
    
    <!-- Section inférieure -->
    <rect x="32" y="320" width="536" height="60" rx="4" fill="#E9ECEF"/>
    <rect x="52" y="340" width="80" height="20" rx="4" fill="#DEE2E6"/>
    <rect x="152" y="340" width="80" height="20" rx="4" fill="#DEE2E6"/>
    <rect x="252" y="340" width="80" height="20" rx="4" fill="#DEE2E6"/>
    
    <!-- Effet de flottement -->
    <animateTransform 
        attributeName="transform" 
        attributeType="XML" 
        type="translate" 
        from="0 0" 
        to="0 -10" 
        dur="3s" 
        repeatCount="indefinite" 
        additive="sum"
        calcMode="spline"
        keySplines="0.5 0 0.5 1; 0.5 0 0.5 1"
        keyTimes="0;0.5;1"
        values="0 0; 0 -10; 0 0"/>
</svg>
